<mxfile host="app.diagrams.net" modified="2023-11-25T21:15:09.230Z" agent="Mozilla/5.0 (Windows NT 10.0; Win64; x64) AppleWebKit/537.36 (KHTML, like Gecko) Chrome/119.0.0.0 Safari/537.36" etag="_wYzrzYskZX64UjF58Uy" version="22.1.4" type="device">
  <diagram name="Page-1" id="edf60f1a-56cd-e834-aa8a-f176f3a09ee4">
    <mxGraphModel dx="1810" dy="978" grid="1" gridSize="10" guides="1" tooltips="1" connect="1" arrows="1" fold="1" page="0" pageScale="1" pageWidth="1100" pageHeight="850" background="none" math="0" shadow="0">
      <root>
        <mxCell id="0" />
        <mxCell id="1" parent="0" />
        <mxCell id="pLNQmwg1PkS63C7VWEH5-3" style="edgeStyle=orthogonalEdgeStyle;rounded=0;orthogonalLoop=1;jettySize=auto;html=1;exitX=0.5;exitY=1;exitDx=0;exitDy=0;exitPerimeter=0;entryX=0.5;entryY=0;entryDx=0;entryDy=0;" parent="1" source="pLNQmwg1PkS63C7VWEH5-1" target="pLNQmwg1PkS63C7VWEH5-2" edge="1">
          <mxGeometry relative="1" as="geometry" />
        </mxCell>
        <mxCell id="pLNQmwg1PkS63C7VWEH5-1" value="Start" style="strokeWidth=2;html=1;shape=mxgraph.flowchart.start_2;whiteSpace=wrap;" parent="1" vertex="1">
          <mxGeometry x="550" y="50" width="160" height="110" as="geometry" />
        </mxCell>
        <mxCell id="pLNQmwg1PkS63C7VWEH5-18" style="edgeStyle=orthogonalEdgeStyle;rounded=0;orthogonalLoop=1;jettySize=auto;html=1;exitX=0.5;exitY=1;exitDx=0;exitDy=0;entryX=0.5;entryY=0;entryDx=0;entryDy=0;" parent="1" source="pLNQmwg1PkS63C7VWEH5-2" target="pLNQmwg1PkS63C7VWEH5-16" edge="1">
          <mxGeometry relative="1" as="geometry" />
        </mxCell>
        <mxCell id="pLNQmwg1PkS63C7VWEH5-2" value="Input:&lt;br&gt;Input Constants (n, a, b, k, epsilon)" style="shape=parallelogram;html=1;strokeWidth=2;perimeter=parallelogramPerimeter;whiteSpace=wrap;rounded=1;arcSize=12;size=0.23;" parent="1" vertex="1">
          <mxGeometry x="490" y="200" width="280" height="80" as="geometry" />
        </mxCell>
        <mxCell id="pLNQmwg1PkS63C7VWEH5-16" value="&lt;div&gt;&amp;nbsp;Initialization&amp;nbsp; &amp;nbsp; &amp;nbsp;&amp;nbsp;&lt;/div&gt;&lt;div&gt;Initialize variables&amp;nbsp; &amp;nbsp;&lt;/div&gt;&lt;div&gt;&amp;nbsp;(x, exactValue,&lt;span style=&quot;background-color: initial;&quot;&gt;&amp;nbsp;approxValueN,&amp;nbsp; &amp;nbsp;&lt;/span&gt;&lt;/div&gt;&lt;div&gt;approxValueEpsilon,&amp;nbsp;&lt;span style=&quot;background-color: initial;&quot;&gt;&amp;nbsp;step, i)&amp;nbsp; &amp;nbsp; &amp;nbsp; &amp;nbsp; &amp;nbsp;&amp;nbsp;&lt;/span&gt;&lt;/div&gt;" style="shape=hexagon;perimeter=hexagonPerimeter2;whiteSpace=wrap;html=1;fixedSize=1;size=80;" parent="1" vertex="1">
          <mxGeometry x="465" y="318" width="330" height="110" as="geometry" />
        </mxCell>
        <mxCell id="gemo5HKsJzENkjCz5rIZ-2" value="" style="edgeStyle=orthogonalEdgeStyle;rounded=0;orthogonalLoop=1;jettySize=auto;html=1;" parent="1" source="pLNQmwg1PkS63C7VWEH5-19" target="gemo5HKsJzENkjCz5rIZ-1" edge="1">
          <mxGeometry relative="1" as="geometry" />
        </mxCell>
        <mxCell id="gemo5HKsJzENkjCz5rIZ-11" value="" style="edgeStyle=orthogonalEdgeStyle;rounded=0;orthogonalLoop=1;jettySize=auto;html=1;" parent="1" source="pLNQmwg1PkS63C7VWEH5-19" target="gemo5HKsJzENkjCz5rIZ-10" edge="1">
          <mxGeometry relative="1" as="geometry" />
        </mxCell>
        <mxCell id="pLNQmwg1PkS63C7VWEH5-19" value="for:&lt;br&gt;int i = 0; i &amp;lt;= n; ++i" style="strokeWidth=2;html=1;shape=mxgraph.flowchart.decision;whiteSpace=wrap;" parent="1" vertex="1">
          <mxGeometry x="770" y="540" width="205" height="130" as="geometry" />
        </mxCell>
        <mxCell id="gemo5HKsJzENkjCz5rIZ-1" value="double term = pow..." style="whiteSpace=wrap;html=1;strokeWidth=2;" parent="1" vertex="1">
          <mxGeometry x="1080" y="575" width="120" height="60" as="geometry" />
        </mxCell>
        <mxCell id="gemo5HKsJzENkjCz5rIZ-9" value="return sum" style="text;html=1;align=center;verticalAlign=middle;resizable=0;points=[];autosize=1;strokeColor=none;fillColor=none;" parent="1" vertex="1">
          <mxGeometry x="960" y="740" width="80" height="30" as="geometry" />
        </mxCell>
        <mxCell id="gemo5HKsJzENkjCz5rIZ-19" value="" style="edgeStyle=orthogonalEdgeStyle;rounded=0;orthogonalLoop=1;jettySize=auto;html=1;" parent="1" source="gemo5HKsJzENkjCz5rIZ-10" target="gemo5HKsJzENkjCz5rIZ-18" edge="1">
          <mxGeometry relative="1" as="geometry" />
        </mxCell>
        <mxCell id="gemo5HKsJzENkjCz5rIZ-21" style="edgeStyle=orthogonalEdgeStyle;rounded=0;orthogonalLoop=1;jettySize=auto;html=1;exitX=0;exitY=0.5;exitDx=0;exitDy=0;" parent="1" source="gemo5HKsJzENkjCz5rIZ-10" edge="1">
          <mxGeometry relative="1" as="geometry">
            <mxPoint x="430" y="1240.0000000000002" as="targetPoint" />
          </mxGeometry>
        </mxCell>
        <mxCell id="gemo5HKsJzENkjCz5rIZ-10" value="while:&lt;br&gt;fabs(term) &amp;gt; epsilon" style="rhombus;whiteSpace=wrap;html=1;strokeWidth=2;" parent="1" vertex="1">
          <mxGeometry x="530" y="730" width="190" height="145" as="geometry" />
        </mxCell>
        <mxCell id="gemo5HKsJzENkjCz5rIZ-12" style="edgeStyle=orthogonalEdgeStyle;rounded=0;orthogonalLoop=1;jettySize=auto;html=1;exitX=0.5;exitY=1;exitDx=0;exitDy=0;entryX=0.5;entryY=0;entryDx=0;entryDy=0;entryPerimeter=0;" parent="1" source="pLNQmwg1PkS63C7VWEH5-16" target="pLNQmwg1PkS63C7VWEH5-19" edge="1">
          <mxGeometry relative="1" as="geometry">
            <Array as="points">
              <mxPoint x="630" y="480" />
              <mxPoint x="872" y="480" />
            </Array>
          </mxGeometry>
        </mxCell>
        <mxCell id="gemo5HKsJzENkjCz5rIZ-17" style="edgeStyle=orthogonalEdgeStyle;rounded=0;orthogonalLoop=1;jettySize=auto;html=1;exitX=0.5;exitY=1;exitDx=0;exitDy=0;entryX=0.5;entryY=1;entryDx=0;entryDy=0;entryPerimeter=0;" parent="1" source="gemo5HKsJzENkjCz5rIZ-1" target="pLNQmwg1PkS63C7VWEH5-19" edge="1">
          <mxGeometry relative="1" as="geometry">
            <Array as="points">
              <mxPoint x="1140" y="770" />
              <mxPoint x="873" y="770" />
            </Array>
          </mxGeometry>
        </mxCell>
        <mxCell id="gemo5HKsJzENkjCz5rIZ-20" style="edgeStyle=orthogonalEdgeStyle;rounded=0;orthogonalLoop=1;jettySize=auto;html=1;exitX=1;exitY=0.5;exitDx=0;exitDy=0;entryX=1;entryY=0.5;entryDx=0;entryDy=0;" parent="1" source="gemo5HKsJzENkjCz5rIZ-18" target="gemo5HKsJzENkjCz5rIZ-10" edge="1">
          <mxGeometry relative="1" as="geometry">
            <Array as="points">
              <mxPoint x="890" y="1027" />
              <mxPoint x="890" y="802" />
            </Array>
          </mxGeometry>
        </mxCell>
        <mxCell id="gemo5HKsJzENkjCz5rIZ-18" value="term = pow(-1, i) * pow(x, 2 * i + 1) / (2 * i + 1)" style="whiteSpace=wrap;html=1;strokeWidth=2;" parent="1" vertex="1">
          <mxGeometry x="565" y="997.5" width="120" height="60" as="geometry" />
        </mxCell>
        <mxCell id="YaKzaAmzFK5hTt9Ghl6a-1" value="sum += term" style="text;html=1;align=center;verticalAlign=middle;resizable=0;points=[];autosize=1;strokeColor=none;fillColor=none;" vertex="1" parent="1">
          <mxGeometry x="900" y="898" width="90" height="30" as="geometry" />
        </mxCell>
        <mxCell id="YaKzaAmzFK5hTt9Ghl6a-5" value="" style="edgeStyle=orthogonalEdgeStyle;rounded=0;orthogonalLoop=1;jettySize=auto;html=1;" edge="1" parent="1" source="YaKzaAmzFK5hTt9Ghl6a-3" target="YaKzaAmzFK5hTt9Ghl6a-4">
          <mxGeometry relative="1" as="geometry" />
        </mxCell>
        <mxCell id="YaKzaAmzFK5hTt9Ghl6a-3" value="for:&lt;br&gt;x = a; x &amp;lt;= b; x += step" style="rhombus;whiteSpace=wrap;html=1;" vertex="1" parent="1">
          <mxGeometry x="344" y="1180" width="170" height="140" as="geometry" />
        </mxCell>
        <mxCell id="YaKzaAmzFK5hTt9Ghl6a-6" style="edgeStyle=orthogonalEdgeStyle;rounded=0;orthogonalLoop=1;jettySize=auto;html=1;" edge="1" parent="1" source="YaKzaAmzFK5hTt9Ghl6a-4">
          <mxGeometry relative="1" as="geometry">
            <mxPoint x="430" y="1150" as="targetPoint" />
            <Array as="points">
              <mxPoint x="740" y="1150" />
            </Array>
          </mxGeometry>
        </mxCell>
        <mxCell id="YaKzaAmzFK5hTt9Ghl6a-4" value="&lt;div&gt;double exactValue = exactFunction(x);&lt;/div&gt;&lt;div&gt;&amp;nbsp; &amp;nbsp; &amp;nbsp; &amp;nbsp; double approxValueN = powerSeriesExpansion(n, x);&lt;/div&gt;&lt;div&gt;&amp;nbsp; &amp;nbsp; &amp;nbsp; &amp;nbsp; double approxValueEpsilon = computeFunctionWithPrecision(x, epsilon);&lt;/div&gt;" style="whiteSpace=wrap;html=1;" vertex="1" parent="1">
          <mxGeometry x="600" y="1198.5" width="231" height="103" as="geometry" />
        </mxCell>
        <mxCell id="YaKzaAmzFK5hTt9Ghl6a-7" value="Output:&lt;br&gt;Обчислення функції&lt;br&gt;&amp;nbsp;&quot;X\tSN\tSE\tY&quot;" style="shape=parallelogram;html=1;strokeWidth=2;perimeter=parallelogramPerimeter;whiteSpace=wrap;rounded=1;arcSize=12;size=0.23;" vertex="1" parent="1">
          <mxGeometry x="318" y="1370" width="196" height="80" as="geometry" />
        </mxCell>
        <mxCell id="YaKzaAmzFK5hTt9Ghl6a-8" style="edgeStyle=orthogonalEdgeStyle;rounded=0;orthogonalLoop=1;jettySize=auto;html=1;exitX=0.5;exitY=1;exitDx=0;exitDy=0;entryX=0.576;entryY=-0.001;entryDx=0;entryDy=0;entryPerimeter=0;" edge="1" parent="1" source="YaKzaAmzFK5hTt9Ghl6a-3" target="YaKzaAmzFK5hTt9Ghl6a-7">
          <mxGeometry relative="1" as="geometry" />
        </mxCell>
        <mxCell id="YaKzaAmzFK5hTt9Ghl6a-9" value="END" style="strokeWidth=2;html=1;shape=mxgraph.flowchart.terminator;whiteSpace=wrap;" vertex="1" parent="1">
          <mxGeometry x="365" y="1480" width="100" height="60" as="geometry" />
        </mxCell>
        <mxCell id="YaKzaAmzFK5hTt9Ghl6a-10" style="edgeStyle=orthogonalEdgeStyle;rounded=0;orthogonalLoop=1;jettySize=auto;html=1;exitX=0.5;exitY=1;exitDx=0;exitDy=0;entryX=0.5;entryY=0;entryDx=0;entryDy=0;entryPerimeter=0;" edge="1" parent="1" source="YaKzaAmzFK5hTt9Ghl6a-7" target="YaKzaAmzFK5hTt9Ghl6a-9">
          <mxGeometry relative="1" as="geometry" />
        </mxCell>
      </root>
    </mxGraphModel>
  </diagram>
</mxfile>
